<svg xmlns="http://www.w3.org/2000/svg" width="700" height="700" viewBox="0 0 700 700" role="img" aria-label="Photo de nail art (démonstration)">
  <defs>
    <linearGradient id="bg" x1="0" y1="0" x2="1" y2="1">
      <stop offset="0" stop-color="#F3E3DA"/>
      <stop offset="1" stop-color="#C98A8A"/>
    </linearGradient>
    <linearGradient id="nailgrad" x1="0" y1="0" x2="0" y2="1">
      <stop offset="0" stop-color="#ffffff" stop-opacity="0.95"/>
      <stop offset="1" stop-color="#F3E3DA"/>
    </linearGradient>
    <radialGradient id="glow" cx="50%" cy="38%" r="70%">
      <stop offset="0" stop-color="#ffffff" stop-opacity="0.35"/>
      <stop offset="1" stop-color="#ffffff" stop-opacity="0"/>
    </radialGradient>
  </defs>
  <rect width="700" height="700" fill="url(#bg)"/>
  <rect width="700" height="700" fill="url(#glow)"/>
  <g opacity="0.96"><g transform="translate(413.6,248.2) rotate(32.0)"><rect x="-13" y="-78" width="26" height="94" rx="13" fill="url(#nailgrad)" stroke="#ffffff" stroke-opacity=".5" stroke-width="1"/><rect x="-13" y="-78" width="26" height="12" rx="6" fill="#ffffff" opacity="0.9"/></g><g transform="translate(455.0,291.8) rotate(61.0)"><rect x="-13" y="-88" width="26" height="104" rx="13" fill="url(#nailgrad)" stroke="#ffffff" stroke-opacity=".5" stroke-width="1"/><rect x="-13" y="-88" width="26" height="12" rx="6" fill="#ffffff" opacity="0.9"/></g><g transform="translate(470.0,350.0) rotate(90.0)"><rect x="-13" y="-94" width="26" height="110" rx="13" fill="url(#nailgrad)" stroke="#ffffff" stroke-opacity=".5" stroke-width="1"/><rect x="-13" y="-94" width="26" height="12" rx="6" fill="#ffffff" opacity="0.9"/></g><g transform="translate(455.0,408.2) rotate(119.0)"><rect x="-13" y="-88" width="26" height="104" rx="13" fill="url(#nailgrad)" stroke="#ffffff" stroke-opacity=".5" stroke-width="1"/><rect x="-13" y="-88" width="26" height="12" rx="6" fill="#ffffff" opacity="0.9"/></g><g transform="translate(413.6,451.8) rotate(148.0)"><rect x="-13" y="-78" width="26" height="94" rx="13" fill="url(#nailgrad)" stroke="#ffffff" stroke-opacity=".5" stroke-width="1"/><rect x="-13" y="-78" width="26" height="12" rx="6" fill="#ffffff" opacity="0.9"/></g></g>
  <circle cx="112" cy="140" r="5" fill="#ffffff" opacity=".5"/>
  <circle cx="574" cy="546" r="7" fill="#B8933F" opacity=".55"/>
  <text x="684" y="686" text-anchor="end" font-family="Georgia, serif" font-size="20" fill="#2B2422" opacity="0.32">Semi-permanent</text>
</svg>